<?xml version="1.0" encoding="UTF-8" standalone="no"?>
<svg
   version="1.1"
   preserveAspectRatio="none"
   viewBox="0 0 614.40002 345.60001"
   height="345.60001"
   width="614.40002"
   id="svg888"
   sodipodi:docname="frame.svg"
   inkscape:version="1.1 (c68e22c387, 2021-05-23)"
   xmlns:inkscape="http://www.inkscape.org/namespaces/inkscape"
   xmlns:sodipodi="http://sodipodi.sourceforge.net/DTD/sodipodi-0.dtd"
   xmlns:xlink="http://www.w3.org/1999/xlink"
   xmlns="http://www.w3.org/2000/svg"
   xmlns:svg="http://www.w3.org/2000/svg"
   xmlns:rdf="http://www.w3.org/1999/02/22-rdf-syntax-ns#"
   xmlns:cc="http://creativecommons.org/ns#"
   xmlns:dc="http://purl.org/dc/elements/1.1/">
  <metadata
     id="metadata894">
    <rdf:RDF>
      <cc:Work
         rdf:about="">
        <dc:format>image/svg+xml</dc:format>
        <dc:type
           rdf:resource="http://purl.org/dc/dcmitype/StillImage" />
      </cc:Work>
    </rdf:RDF>
  </metadata>
  <defs
     id="defs892">
    <linearGradient
       id="linearGradient5006"
       inkscape:swatch="gradient">
      <stop
         style="stop-color:#e02020;stop-opacity:1;"
         offset="0"
         id="stop5002" />
      <stop
         style="stop-color:#e02020;stop-opacity:0;"
         offset="1"
         id="stop5004" />
    </linearGradient>
    <filter
       id="filter1167"
       inkscape:label="Diffuse Light"
       style="color-interpolation-filters:sRGB;"
       x="-0.016724373"
       y="-0.02973222"
       width="1.0334487"
       height="1.0594644">
      <feGaussianBlur
         id="feGaussianBlur1157"
         result="blur"
         stdDeviation="4.28144"
         in="SourceGraphic" />
      <feDiffuseLighting
         id="feDiffuseLighting1161"
         result="diffuse"
         lighting-color="rgb(122,255,215)"
         surfaceScale="10"
         diffuseConstant="1">
        <feDistantLight
           id="feDistantLight1159"
           azimuth="235"
           elevation="131" />
      </feDiffuseLighting>
      <feComposite
         id="feComposite1163"
         result="composite1"
         k1="1"
         operator="arithmetic"
         in2="diffuse"
         in="diffuse" />
      <feComposite
         id="feComposite1165"
         result="composite2"
         k3="1"
         operator="arithmetic"
         k1="0.901961"
         in2="SourceGraphic"
         in="composite1" />
    </filter>
    <filter
       inkscape:collect="always"
       style="color-interpolation-filters:sRGB"
       id="filter2254"
       x="-0.016426362"
       y="-0.021639221"
       width="1.0328519"
       height="1.0428233">
      <feGaussianBlur
         inkscape:collect="always"
         stdDeviation="0.02442058"
         id="feGaussianBlur2256" />
    </filter>
    <radialGradient
       inkscape:collect="always"
       xlink:href="#linearGradient5006"
       id="radialGradient5008"
       cx="572.20843"
       cy="158.28499"
       fx="572.20843"
       fy="158.28499"
       r="139.57402"
       gradientTransform="matrix(1,0,0,1.1442024,0,-22.825075)"
       gradientUnits="userSpaceOnUse" />
    <mask
       maskUnits="userSpaceOnUse"
       id="mask5968">
      <path
         style="opacity:1;fill:url(#radialGradient5972);fill-opacity:1;stroke:#1780d2;stroke-width:2;stroke-linejoin:round;stroke-miterlimit:4;stroke-dasharray:none;stroke-opacity:1;filter:url(#filter2254)"
         d="m 552.34752,271.47295 c -10.87599,-6.6835 -19.77775,-12.20419 -19.78171,-12.26818 -0.0121,-0.19561 3.72683,-6.0471 3.90069,-6.10464 0.0894,-0.0296 4.64238,2.49608 10.11761,5.61262 7.94553,4.52268 9.96827,5.60701 10.02094,5.37207 0.0363,-0.16192 1.52507,-13.63791 3.30839,-29.94667 2.37647,-21.73316 3.19119,-29.70444 3.05061,-29.84756 -0.1055,-0.10743 -6.05624,-3.53694 -13.2239,-7.62117 l -13.03208,-7.42586 -3.15689,2.29174 c -25.57353,18.56506 -45.57719,33.18693 -45.57719,33.31507 0,0.0884 4.36323,2.72462 9.69607,5.85824 5.33284,3.13362 9.74933,5.74802 9.81443,5.80977 0.13828,0.13117 -3.4083,6.47248 -3.61993,6.47248 -0.12098,0 -40.49855,-21.50896 -40.7316,-21.69756 -0.0741,-0.06 0.91313,-37.41159 1.15566,-43.72303 l 0.1029,-2.67801 1.83544,0.0599 c 1.00951,0.033 2.71144,0.1047 3.78209,0.15944 l 1.94667,0.0995 0.0445,11.39422 0.0445,11.3942 27.56975,-12.05569 27.56975,-12.05571 -8.7e-4,-15.38482 -8.6e-4,-15.38481 -27.5689,-12.05303 -27.56887,-12.05304 -0.0445,11.39196 -0.0445,11.39196 -1.77352,0.0995 c -0.97542,0.0547 -2.68899,0.12515 -3.80794,0.15645 l -2.03444,0.0569 -0.002,-0.44081 c 0,-0.24245 -0.27289,-9.87797 -0.60514,-21.4123 -0.33226,-11.5343 -0.60449,-21.715535 -0.60496,-22.624945 l -0.002,-1.65347 20.30109,-10.980984 c 11.1656,-6.039542 20.36183,-10.980985 20.43605,-10.980985 0.0742,0 0.94682,1.431045 1.93907,3.180101 1.42379,2.509693 1.75587,3.216974 1.57522,3.355002 -0.12589,0.09619 -4.59448,2.682405 -9.93021,5.747136 l -9.70132,5.57224 0.71914,0.54172 c 0.73099,0.55064 44.41013,32.437945 46.55267,33.985075 l 1.16994,0.84482 13.49465,-7.67531 13.49467,-7.67532 -0.0811,-0.54471 c -0.0446,-0.29959 -1.51757,-13.648275 -3.27328,-29.663733 -1.75572,-16.015459 -3.22469,-29.151258 -3.26438,-29.190664 -0.0397,-0.03941 -4.42388,2.396814 -9.74264,5.413827 -5.31876,3.01701 -9.83841,5.573475 -10.04365,5.681031 -0.3517,0.184301 -0.48516,0.01702 -2.31859,-2.906057 -1.10154,-1.756217 -1.87849,-3.163423 -1.79113,-3.244102 0.0848,-0.07837 8.98712,-5.599556 19.7828,-12.269302 l 19.62852,-12.126814 1.32192,0.819811 c 0.72706,0.450897 9.50299,5.872853 19.50206,12.048791 9.99907,6.175937 18.31489,11.319601 18.47958,11.43036 0.27007,0.181626 0.1101,0.503614 -1.63054,3.281819 -1.06149,1.694241 -1.94873,3.105544 -1.97166,3.136229 -0.0229,0.03068 -4.49846,-2.507139 -9.94565,-5.639609 -5.44719,-3.132468 -9.93594,-5.66366 -9.97501,-5.624866 -0.0573,0.05692 -6.34374,56.906009 -6.50988,58.869999 l -0.0475,0.56145 13.32319,7.65195 c 7.32775,4.20857 13.40511,7.61293 13.50523,7.56522 0.59333,-0.28264 48.3076,-35.108005 48.29438,-35.248765 -0.0125,-0.132038 -11.99242,-7.120289 -18.72827,-10.924699 l -0.91619,-0.517457 1.67899,-3.217588 c 0.92343,-1.769671 1.69882,-3.242872 1.72307,-3.27378 0.064,-0.08162 40.6299,21.464244 40.92951,21.739004 0.22043,0.20216 0.15948,3.05994 -0.48612,22.794155 -0.40598,12.40966 -0.77377,22.80167 -0.81725,23.09336 l -0.0791,0.53034 -1.85881,-0.061 c -1.02234,-0.0336 -2.65687,-0.10562 -3.6323,-0.16004 l -1.77352,-0.099 -0.0444,-11.39308 -0.0445,-11.39308 -27.56964,12.05415 -27.56967,12.05417 0.0398,15.2628 0.0398,15.26281 27.47898,12.02589 c 15.11342,6.61425 27.52136,12.02591 27.5732,12.02591 0.0519,0 0.0942,-5.13258 0.0942,-11.40573 V 174.8844 l 3.56668,-0.12292 c 1.96167,-0.0676 3.6159,-0.0741 3.67607,-0.0143 0.10879,0.10801 1.55885,40.96921 1.57771,44.45824 l 0.0102,1.82727 -20.42776,10.85016 c -11.23525,5.9676 -20.48992,10.85017 -20.56593,10.85017 -0.13097,0 -3.55262,-6.37865 -3.46113,-6.45224 0.0239,-0.0192 4.46613,-2.575 9.87175,-5.6796 5.40563,-3.10463 9.80782,-5.70469 9.78264,-5.77795 -0.0357,-0.10387 -29.32815,-21.47529 -46.05532,-33.60139 l -2.72355,-1.97439 -13.03696,7.48608 c -7.17034,4.11733 -13.17761,7.58816 -13.34948,7.71293 -0.29832,0.21657 -0.15843,1.58092 3.07902,30.03028 1.86536,16.39185 3.41043,29.82107 3.43351,29.84271 0.023,0.0216 4.46903,-2.50585 9.87991,-5.61664 5.41087,-3.11076 9.89103,-5.65595 9.95593,-5.65595 0.19804,0 3.98247,6.09389 3.8642,6.22235 -0.22819,0.24782 -38.90596,24.25722 -39.15448,24.30532 -0.14285,0.0276 -9.15825,-5.41805 -20.03423,-12.10158 z"
         id="path5970" />
    </mask>
    <radialGradient
       inkscape:collect="always"
       xlink:href="#linearGradient5006"
       id="radialGradient5972"
       gradientUnits="userSpaceOnUse"
       gradientTransform="matrix(1,0,0,1.1442024,0,-22.825075)"
       cx="572.20843"
       cy="158.28499"
       fx="572.20843"
       fy="158.28499"
       r="139.57402" />
    <filter
       inkscape:collect="always"
       style="color-interpolation-filters:sRGB"
       id="filter2254-3"
       x="-0.016426362"
       y="-0.021639221"
       width="1.0328519"
       height="1.0428233">
      <feGaussianBlur
         inkscape:collect="always"
         stdDeviation="0.02442058"
         id="feGaussianBlur2256-8" />
    </filter>
  </defs>
  <sodipodi:namedview
     inkscape:document-rotation="0"
     pagecolor="#000000"
     bordercolor="#666666"
     borderopacity="1"
     objecttolerance="10"
     gridtolerance="10"
     guidetolerance="10"
     inkscape:pageopacity="0"
     inkscape:pageshadow="2"
     inkscape:window-width="1920"
     inkscape:window-height="1137"
     id="namedview890"
     showgrid="false"
     inkscape:zoom="2.1371731"
     inkscape:cx="399.35932"
     inkscape:cy="172.89194"
     inkscape:window-x="-8"
     inkscape:window-y="-8"
     inkscape:window-maximized="1"
     inkscape:current-layer="g886"
     inkscape:pagecheckerboard="0" />
  <g
     transform="translate(34.56486,8.1314753)"
     inkscape:label="TerminalBevel"
     inkscape:groupmode="layer"
     id="g886">
    <path
       d="m -34.56486,320.34853 v -17.12 h 0.48 0.48 v -144.32 -144.320004 h -0.48 -0.48 V 13.06659 11.544654 l 9.841907,-9.8380643 9.841905,-9.838065 h 12.0780942 12.078095 v 0.48 0.48 H 30.235142 51.195143 v -0.48 -0.48 h 3.04 3.04 v 0.48 0.48 H 304.15516 551.03517 v -0.48 -0.48 h 14.4 14.4 V 12.348526 32.82853 h -0.48 -0.48 v 62.07999 62.08001 h 0.48 0.48 v 1.76 1.76 h -0.8 -0.8 v 25.76 25.76 h 0.8 0.8 v 1.6 1.6 h -0.48 -0.48 v 51.44207 51.44206 l -9.20205,9.19795 -9.20202,9.19792 h -53.35798 -53.35796 v 0.48 0.48 h -49.6 -49.6 v -1.12 -1.12 h -47.2 -47.2 v 1.12 1.12 h -64.48001 -64.48 v -0.48 -0.48 h -26.08 -26.080002 v 0.48 0.48 h -14.560005 -14.56 v -0.48 -0.48 H 28.155142 6.3951412 v 0.48 0.48 H -14.084858 -34.56486 Z m 84.480003,15.04 v -0.48 h 14.56 14.560005 v 0.48 0.48 h 56.640002 56.64 v -1.92 -1.92 H 81.435148 -29.444859 v -144.8 -144.8 h -1.12 -1.12 v 145.76 145.76 h 8.639999 8.640002 v 0.48 0.48 h 7.9999992 8 v -0.48 -0.48 h 2.4 2.4 v 0.96 0.96 H 28.155142 49.915143 Z m 204.160017,0 v -0.48 h -28.48 -28.48001 v 0.48 0.48 h 28.48001 28.48 z m 163.84,0 v -0.48 h -28.48 -28.48 v 0.48 0.48 h 28.48 28.48 z m 149.51764,-7.4376 7.92237,-7.9176 v -52.4024 -52.4024 h -1.44 -1.44 v 51.75721 51.75722 l -6.63716,6.64279 -6.63712,6.64278 h -68.24288 -68.24285 v 1.92 1.92 h 68.39764 68.39766 z m -313.35764,5.0376 v -0.96 h -28.48 -28.48001 v 0.96 0.96 h 28.48001 28.48 z m 163.84,0 v -0.96 h -28.48 -28.48 v 0.96 0.96 h 28.48 28.48 z m 147.11729,-8.39722 6.80272,-6.79721 V 158.67132 -0.45147533 H 275.59961 -20.63596 l -4.084449,4.07538303 -4.08445,4.075383 V 22.663909 37.62853 h 0.64 0.64 v 2.4 2.4 h -0.64 -0.64 v 140.96 140.96 h 3.2 3.199999 v 3.52 3.52 h 290.31729 290.31726 z m 12.24272,-57.88196 v -51.48082 h -0.48 -0.48 v 51.87918 51.87919 l 0.48,-0.39837 0.48,-0.39837 z m 0.96,-0.45971 v -51.02111 h -0.32 -0.32 v 51.21889 51.21887 l 0.32,-0.19776 0.32,-0.19776 z M -32.324859,158.90853 V 14.588526 h -0.320001 -0.32 v 144.320004 144.32 h 0.32 0.320001 z m 606.080029,27.36 v -25.76 h -0.64 -0.64 v 25.76 25.76 h 0.64 0.64 z m 1.6,-91.36001 V 32.82853 h -0.64 -0.64 v -1.76 -1.76 h -0.8 -0.8 v 63.83999 63.84001 h 1.44 1.44 z m 1.92,0 V 32.82853 h -0.48 -0.48 v 62.07999 62.08001 h 0.48 0.48 z m 0.96,0 V 32.82853 h -0.32 -0.32 v 62.07999 62.08001 h 0.32 0.32 z M -30.404859,23.49893 V 9.3693337 l -0.64,0.579192 -0.64,0.5791923 V 24.078123 37.62853 h 0.64 0.64 z m 604.480029,2.9296 v -1.920004 h 1.28 1.28 v -14.08 -14.0800013 h -4.8 -4.8 v 1.28 1.28 h 2.72 2.72 V 13.628526 28.34853 h 0.8 0.8 z m -8,-28.8000053 v -1.28 h -2.08 -2.08 v -0.64 -0.64 H 309.59516 57.275143 v 1.92 1.92 H 311.67516 566.07517 Z m -562.8800288,-0.64 v -1.28 H -6.8199158 -16.834972 l -1.249886,1.28 -1.249887,1.28 h 11.2649432 11.264943 z m 48.0000018,-1.12 v -2.4 H 30.235142 9.2751412 v 2.4 2.4 H 30.235142 51.195143 Z m -48.0000018,-1.76 v -0.64 h -8.910404 -8.9104032 l -0.579192,0.64 -0.579192,0.64 h 9.4895952 9.489596 z m 558.7200288,-0.32 v -0.32 h -26.24 -26.24001 v 0.32 0.32 h 26.24001 26.24 z"
       style="fill:#e00000;fill-opacity:1;fill-rule:nonzero;stroke-width:0.32;filter:url(#filter1167)"
       id="path884" />
    <path
       inkscape:connector-curvature="0"
       id="path831"
       d="m -23.305846,328.22874 v -3.59458 h -2.933333 -2.933335 V 183.50419 c 0,-93.381663 0.220539,-141.266633 0.651852,-141.533895 0.850102,-0.526767 0.850102,-5.555243 0,-5.555243 -0.415492,0 -0.651852,-5.398674 -0.651852,-14.888906 V 6.6372418 l 3.767052,-3.7375011 3.767052,-3.73749991 H 275.09838 571.83517 V 158.47817 317.7941 l -7.01806,7.0146 -7.01805,7.0146 H 267.24661 -23.305846 Z"
       style="opacity:1;mix-blend-mode:lighten;fill:#ff3000;fill-opacity:1;stroke-width:7.15406;stroke-linecap:round;stroke-linejoin:bevel;stop-color:#000000"
       mask="url(#mask5968)" />
    <path
       style="display:none;opacity:1;fill:url(#radialGradient5008);fill-opacity:1;stroke:#1780d2;stroke-width:2;stroke-linejoin:round;stroke-miterlimit:4;stroke-dasharray:none;stroke-opacity:1;filter:url(#filter2254)"
       d="M 696.87237,119.60665 V 86.726401 L 668.60659,70.582199 C 653.06041,61.702888 640.13195,54.314162 639.87666,54.162808 l -0.46413,-0.275191 3.50023,-5.92239 c 1.92514,-3.257316 3.58159,-5.922393 3.68099,-5.922393 0.0995,0 14.56792,8.276859 32.1522,18.39302 l 31.97147,18.393018 0.003,36.829008 0.003,36.82902 h -6.92577 -6.92576 v -32.88025 z"
       id="path5183" />
    <path
       style="opacity:1;fill:#801010;fill-opacity:1;stroke:#1780d2;stroke-width:2;stroke-linejoin:round;stroke-miterlimit:4;stroke-dasharray:none;stroke-opacity:1;filter:url(#filter2254)"
       d="m 433.69664,115.65788 0.003,-36.829008 32.2141,-18.45785 c 17.71775,-10.151818 32.27518,-18.39 32.34986,-18.30707 0.40466,0.449418 6.92702,11.460385 6.85607,11.574347 -0.0464,0.07455 -13.0198,7.549408 -28.82976,16.610794 l -28.74536,16.475249 v 32.881278 32.88128 h -6.92576 -6.92577 z"
       id="path5181" />
    <path
       style="opacity:1;fill:#801010;fill-opacity:1;stroke:#1780d2;stroke-width:2;stroke-linejoin:round;stroke-miterlimit:4;stroke-dasharray:none;stroke-opacity:1;filter:url(#filter2254)"
       d="m 465.85799,256.09371 -32.15834,-18.43166 -0.003,-37.00092 -0.003,-37.00091 h 6.92532 6.92533 l 0.0437,32.94716 0.0437,32.94714 28.71312,16.4591 c 15.79224,9.0525 28.75423,16.49987 28.80442,16.5497 0.10257,0.10184 -6.87286,11.97314 -7.03128,11.96637 -0.0557,-0.002 -14.57259,-8.29858 -32.25967,-18.43598 z"
       id="path5177" />
    <path
       id="path541"
       style="opacity:1;fill:#801010;fill-opacity:1;stroke:#1780d2;stroke-width:2;stroke-linejoin:round;stroke-miterlimit:4;stroke-dasharray:none;stroke-opacity:1;filter:url(#filter2254)"
       d="m 606.98275,325.08085 c -1.5e-4,6e-5 -2.7e-4,1.1e-4 -3.6e-4,1.5e-4 -0.0673,0.0234 -14.59504,-8.25222 -32.28388,-18.39051 v 0 c -17.68884,-10.13831 -32.16152,-18.50379 -32.16152,-18.58993 0,-0.0862 1.56684,-2.80757 3.48185,-6.04763 l 3.48185,-5.89106 1.40947,0.82183 c 0.77521,0.452 13.67132,7.87957 28.65802,16.50573 21.40666,12.32139 26.2318,15.06687 27.35962,15.45652 l 0.0549,16.1349"
       transform="translate(-34.56486,-8.1314753)"
       sodipodi:nodetypes="ccsssscsscc" />
    <path
       id="path541-9"
       style="fill:#801010;fill-opacity:1;stroke:#1780d2;stroke-width:2;stroke-linejoin:round;stroke-miterlimit:4;stroke-dasharray:none;stroke-opacity:1;filter:url(#filter2254-3)"
       d="m 804.7089,345.66786 c -1.5e-4,6e-5 -2.7e-4,1.1e-4 -3.6e-4,1.5e-4 -0.0673,0.0234 -14.59504,-8.25222 -32.28388,-18.39051 v 0 c -17.68884,-10.13831 -32.16152,-18.50379 -32.16152,-18.58993 0,-0.0862 1.56684,-2.80757 3.48185,-6.04763 l 3.48185,-5.89106 1.40947,0.82183 c 0.77521,0.452 13.67132,7.87957 28.65802,16.50573 21.40666,12.32139 26.2318,15.06687 27.35962,15.45652 l 0.0549,16.1349"
       sodipodi:nodetypes="ccsssscsscc"
       transform="matrix(1,0,0,-1,-232.87337,345.21653)" />
  </g>
</svg>
